<mxfile host="app.diagrams.net" modified="2024-03-30T14:40:43.506Z" agent="Mozilla/5.0 (X11; Linux x86_64) AppleWebKit/537.36 (KHTML, like Gecko) Chrome/111.0.0.0 Safari/537.36" etag="CurKQV4611FL262GNedo" version="24.2.1" type="device">
  <diagram name="Page-1" id="pHf3SJh8BgMXSewSi1kd">
    <mxGraphModel dx="2537" dy="944" grid="1" gridSize="10" guides="1" tooltips="1" connect="1" arrows="1" fold="1" page="1" pageScale="1" pageWidth="850" pageHeight="1100" math="0" shadow="0">
      <root>
        <mxCell id="0" />
        <mxCell id="1" parent="0" />
        <mxCell id="M-JQSVvkI15GJPPJ3Po0-2" style="edgeStyle=orthogonalEdgeStyle;rounded=0;orthogonalLoop=1;jettySize=auto;html=1;" edge="1" parent="1" source="M-JQSVvkI15GJPPJ3Po0-1">
          <mxGeometry relative="1" as="geometry">
            <mxPoint x="390" y="190" as="targetPoint" />
          </mxGeometry>
        </mxCell>
        <mxCell id="M-JQSVvkI15GJPPJ3Po0-1" value="" style="fontColor=#0066CC;verticalAlign=top;verticalLabelPosition=bottom;labelPosition=center;align=center;html=1;outlineConnect=0;fillColor=#CCCCCC;strokeColor=#6881B3;gradientColor=none;gradientDirection=north;strokeWidth=2;shape=mxgraph.networks.laptop;" vertex="1" parent="1">
          <mxGeometry x="340" y="50" width="100" height="55" as="geometry" />
        </mxCell>
        <mxCell id="M-JQSVvkI15GJPPJ3Po0-5" style="edgeStyle=orthogonalEdgeStyle;rounded=0;orthogonalLoop=1;jettySize=auto;html=1;entryX=0;entryY=0.5;entryDx=0;entryDy=0;" edge="1" parent="1" target="M-JQSVvkI15GJPPJ3Po0-7">
          <mxGeometry relative="1" as="geometry">
            <mxPoint x="571" y="219.5" as="targetPoint" />
            <mxPoint x="450" y="219.5" as="sourcePoint" />
          </mxGeometry>
        </mxCell>
        <mxCell id="M-JQSVvkI15GJPPJ3Po0-13" style="edgeStyle=orthogonalEdgeStyle;rounded=0;orthogonalLoop=1;jettySize=auto;html=1;" edge="1" parent="1" source="M-JQSVvkI15GJPPJ3Po0-6" target="M-JQSVvkI15GJPPJ3Po0-10">
          <mxGeometry relative="1" as="geometry">
            <Array as="points">
              <mxPoint x="390" y="350" />
              <mxPoint x="470" y="350" />
            </Array>
          </mxGeometry>
        </mxCell>
        <mxCell id="M-JQSVvkI15GJPPJ3Po0-48" value="/accomondations (1.5, 1.6, 1.7)" style="edgeLabel;html=1;align=center;verticalAlign=middle;resizable=0;points=[];" vertex="1" connectable="0" parent="M-JQSVvkI15GJPPJ3Po0-13">
          <mxGeometry x="0.5571" y="2" relative="1" as="geometry">
            <mxPoint as="offset" />
          </mxGeometry>
        </mxCell>
        <mxCell id="M-JQSVvkI15GJPPJ3Po0-14" style="edgeStyle=orthogonalEdgeStyle;rounded=0;orthogonalLoop=1;jettySize=auto;html=1;" edge="1" parent="1" source="M-JQSVvkI15GJPPJ3Po0-6" target="M-JQSVvkI15GJPPJ3Po0-12">
          <mxGeometry relative="1" as="geometry" />
        </mxCell>
        <mxCell id="M-JQSVvkI15GJPPJ3Po0-57" value="/reservations&lt;div&gt;/accomondations/reservations&lt;/div&gt;" style="edgeLabel;html=1;align=center;verticalAlign=middle;resizable=0;points=[];" vertex="1" connectable="0" parent="M-JQSVvkI15GJPPJ3Po0-14">
          <mxGeometry x="0.5929" y="3" relative="1" as="geometry">
            <mxPoint x="-3" y="17" as="offset" />
          </mxGeometry>
        </mxCell>
        <mxCell id="M-JQSVvkI15GJPPJ3Po0-15" style="edgeStyle=orthogonalEdgeStyle;rounded=0;orthogonalLoop=1;jettySize=auto;html=1;entryX=0.5;entryY=0;entryDx=0;entryDy=0;" edge="1" parent="1" source="M-JQSVvkI15GJPPJ3Po0-6" target="M-JQSVvkI15GJPPJ3Po0-11">
          <mxGeometry relative="1" as="geometry">
            <Array as="points">
              <mxPoint x="390" y="350" />
              <mxPoint x="140" y="350" />
            </Array>
          </mxGeometry>
        </mxCell>
        <mxCell id="M-JQSVvkI15GJPPJ3Po0-60" value="/notifications" style="edgeLabel;html=1;align=center;verticalAlign=middle;resizable=0;points=[];" vertex="1" connectable="0" parent="M-JQSVvkI15GJPPJ3Po0-15">
          <mxGeometry x="0.7956" y="-2" relative="1" as="geometry">
            <mxPoint as="offset" />
          </mxGeometry>
        </mxCell>
        <mxCell id="M-JQSVvkI15GJPPJ3Po0-16" style="edgeStyle=orthogonalEdgeStyle;rounded=0;orthogonalLoop=1;jettySize=auto;html=1;" edge="1" parent="1" source="M-JQSVvkI15GJPPJ3Po0-6" target="M-JQSVvkI15GJPPJ3Po0-8">
          <mxGeometry relative="1" as="geometry">
            <Array as="points">
              <mxPoint x="390" y="350" />
              <mxPoint x="670" y="350" />
            </Array>
          </mxGeometry>
        </mxCell>
        <mxCell id="M-JQSVvkI15GJPPJ3Po0-39" value="/account" style="edgeLabel;html=1;align=center;verticalAlign=middle;resizable=0;points=[];" vertex="1" connectable="0" parent="M-JQSVvkI15GJPPJ3Po0-16">
          <mxGeometry x="0.8042" y="-2" relative="1" as="geometry">
            <mxPoint as="offset" />
          </mxGeometry>
        </mxCell>
        <mxCell id="M-JQSVvkI15GJPPJ3Po0-66" style="edgeStyle=orthogonalEdgeStyle;rounded=0;orthogonalLoop=1;jettySize=auto;html=1;" edge="1" parent="1" source="M-JQSVvkI15GJPPJ3Po0-6" target="M-JQSVvkI15GJPPJ3Po0-65">
          <mxGeometry relative="1" as="geometry">
            <Array as="points">
              <mxPoint x="390" y="350" />
              <mxPoint x="-40" y="350" />
            </Array>
          </mxGeometry>
        </mxCell>
        <mxCell id="M-JQSVvkI15GJPPJ3Po0-72" value=".../reviews" style="edgeLabel;html=1;align=center;verticalAlign=middle;resizable=0;points=[];" vertex="1" connectable="0" parent="M-JQSVvkI15GJPPJ3Po0-66">
          <mxGeometry x="0.8317" y="-2" relative="1" as="geometry">
            <mxPoint as="offset" />
          </mxGeometry>
        </mxCell>
        <mxCell id="M-JQSVvkI15GJPPJ3Po0-6" value="API Gateway" style="rounded=0;whiteSpace=wrap;html=1;" vertex="1" parent="1">
          <mxGeometry x="330" y="190" width="120" height="60" as="geometry" />
        </mxCell>
        <mxCell id="M-JQSVvkI15GJPPJ3Po0-23" style="edgeStyle=orthogonalEdgeStyle;rounded=0;orthogonalLoop=1;jettySize=auto;html=1;" edge="1" parent="1" source="M-JQSVvkI15GJPPJ3Po0-7" target="M-JQSVvkI15GJPPJ3Po0-18">
          <mxGeometry relative="1" as="geometry" />
        </mxCell>
        <mxCell id="M-JQSVvkI15GJPPJ3Po0-7" value="Auth service" style="rounded=0;whiteSpace=wrap;html=1;" vertex="1" parent="1">
          <mxGeometry x="670" y="190" width="120" height="60" as="geometry" />
        </mxCell>
        <mxCell id="M-JQSVvkI15GJPPJ3Po0-24" style="edgeStyle=orthogonalEdgeStyle;rounded=0;orthogonalLoop=1;jettySize=auto;html=1;" edge="1" parent="1" source="M-JQSVvkI15GJPPJ3Po0-8" target="M-JQSVvkI15GJPPJ3Po0-19">
          <mxGeometry relative="1" as="geometry" />
        </mxCell>
        <mxCell id="M-JQSVvkI15GJPPJ3Po0-8" value="User Service" style="rounded=0;whiteSpace=wrap;html=1;" vertex="1" parent="1">
          <mxGeometry x="610" y="450" width="120" height="60" as="geometry" />
        </mxCell>
        <mxCell id="M-JQSVvkI15GJPPJ3Po0-10" value="Accomondation Service" style="rounded=0;whiteSpace=wrap;html=1;" vertex="1" parent="1">
          <mxGeometry x="410" y="450" width="120" height="60" as="geometry" />
        </mxCell>
        <mxCell id="M-JQSVvkI15GJPPJ3Po0-11" value="Notification Service" style="rounded=0;whiteSpace=wrap;html=1;" vertex="1" parent="1">
          <mxGeometry x="80" y="450" width="120" height="60" as="geometry" />
        </mxCell>
        <mxCell id="M-JQSVvkI15GJPPJ3Po0-27" style="edgeStyle=orthogonalEdgeStyle;rounded=0;orthogonalLoop=1;jettySize=auto;html=1;" edge="1" parent="1" source="M-JQSVvkI15GJPPJ3Po0-12" target="M-JQSVvkI15GJPPJ3Po0-21">
          <mxGeometry relative="1" as="geometry" />
        </mxCell>
        <mxCell id="M-JQSVvkI15GJPPJ3Po0-12" value="Reservation Service" style="rounded=0;whiteSpace=wrap;html=1;" vertex="1" parent="1">
          <mxGeometry x="250" y="450" width="120" height="60" as="geometry" />
        </mxCell>
        <mxCell id="M-JQSVvkI15GJPPJ3Po0-18" value="SQL database" style="shape=cylinder3;whiteSpace=wrap;html=1;boundedLbl=1;backgroundOutline=1;size=15;" vertex="1" parent="1">
          <mxGeometry x="830" y="180" width="60" height="80" as="geometry" />
        </mxCell>
        <mxCell id="M-JQSVvkI15GJPPJ3Po0-19" value="SQL database" style="shape=cylinder3;whiteSpace=wrap;html=1;boundedLbl=1;backgroundOutline=1;size=15;" vertex="1" parent="1">
          <mxGeometry x="640" y="580" width="60" height="80" as="geometry" />
        </mxCell>
        <mxCell id="M-JQSVvkI15GJPPJ3Po0-20" value="SQL database" style="shape=cylinder3;whiteSpace=wrap;html=1;boundedLbl=1;backgroundOutline=1;size=15;" vertex="1" parent="1">
          <mxGeometry x="440" y="580" width="60" height="80" as="geometry" />
        </mxCell>
        <mxCell id="M-JQSVvkI15GJPPJ3Po0-21" value="SQL database" style="shape=cylinder3;whiteSpace=wrap;html=1;boundedLbl=1;backgroundOutline=1;size=15;" vertex="1" parent="1">
          <mxGeometry x="280" y="580" width="60" height="80" as="geometry" />
        </mxCell>
        <mxCell id="M-JQSVvkI15GJPPJ3Po0-22" value="SQL database" style="shape=cylinder3;whiteSpace=wrap;html=1;boundedLbl=1;backgroundOutline=1;size=15;" vertex="1" parent="1">
          <mxGeometry x="110" y="580" width="60" height="80" as="geometry" />
        </mxCell>
        <mxCell id="M-JQSVvkI15GJPPJ3Po0-28" style="edgeStyle=orthogonalEdgeStyle;rounded=0;orthogonalLoop=1;jettySize=auto;html=1;entryX=0.5;entryY=0;entryDx=0;entryDy=0;entryPerimeter=0;" edge="1" parent="1" source="M-JQSVvkI15GJPPJ3Po0-11" target="M-JQSVvkI15GJPPJ3Po0-22">
          <mxGeometry relative="1" as="geometry" />
        </mxCell>
        <mxCell id="M-JQSVvkI15GJPPJ3Po0-29" value="AuthInfo" style="swimlane;fontStyle=1;align=center;verticalAlign=middle;childLayout=stackLayout;horizontal=1;startSize=29;horizontalStack=0;resizeParent=1;resizeParentMax=0;resizeLast=0;collapsible=0;marginBottom=0;html=1;whiteSpace=wrap;" vertex="1" parent="1">
          <mxGeometry x="910" y="175" width="140" height="90" as="geometry" />
        </mxCell>
        <mxCell id="M-JQSVvkI15GJPPJ3Po0-30" value="user id: string&lt;div&gt;username: string&lt;/div&gt;&lt;div&gt;password: string&lt;/div&gt;&lt;div&gt;role: string&lt;/div&gt;" style="text;html=1;strokeColor=none;fillColor=none;align=center;verticalAlign=middle;spacingLeft=4;spacingRight=4;overflow=hidden;rotatable=0;points=[[0,0.5],[1,0.5]];portConstraint=eastwest;whiteSpace=wrap;" vertex="1" parent="M-JQSVvkI15GJPPJ3Po0-29">
          <mxGeometry y="29" width="140" height="61" as="geometry" />
        </mxCell>
        <mxCell id="M-JQSVvkI15GJPPJ3Po0-32" value="auth/login&lt;div&gt;auth/register&lt;/div&gt;&lt;div&gt;auth/profile&lt;/div&gt;" style="text;html=1;align=center;verticalAlign=middle;resizable=0;points=[];autosize=1;strokeColor=none;fillColor=none;" vertex="1" parent="1">
          <mxGeometry x="500" y="162" width="90" height="60" as="geometry" />
        </mxCell>
        <mxCell id="M-JQSVvkI15GJPPJ3Po0-33" value="User" style="swimlane;fontStyle=1;align=center;verticalAlign=middle;childLayout=stackLayout;horizontal=1;startSize=29;horizontalStack=0;resizeParent=1;resizeParentMax=0;resizeLast=0;collapsible=0;marginBottom=0;html=1;whiteSpace=wrap;" vertex="1" parent="1">
          <mxGeometry x="600" y="680" width="140" height="110" as="geometry" />
        </mxCell>
        <mxCell id="M-JQSVvkI15GJPPJ3Po0-34" value="&lt;div&gt;id: string&lt;/div&gt;&lt;div&gt;email: string&lt;/div&gt;name: string&lt;div&gt;surname: string&lt;/div&gt;&lt;div&gt;address: string&lt;/div&gt;&lt;div&gt;&lt;br&gt;&lt;/div&gt;" style="text;html=1;strokeColor=none;fillColor=none;align=center;verticalAlign=middle;spacingLeft=4;spacingRight=4;overflow=hidden;rotatable=0;points=[[0,0.5],[1,0.5]];portConstraint=eastwest;whiteSpace=wrap;" vertex="1" parent="M-JQSVvkI15GJPPJ3Po0-33">
          <mxGeometry y="29" width="140" height="81" as="geometry" />
        </mxCell>
        <mxCell id="M-JQSVvkI15GJPPJ3Po0-36" style="edgeStyle=orthogonalEdgeStyle;rounded=0;orthogonalLoop=1;jettySize=auto;html=1;entryX=0.892;entryY=-0.033;entryDx=0;entryDy=0;entryPerimeter=0;" edge="1" parent="1" source="M-JQSVvkI15GJPPJ3Po0-7" target="M-JQSVvkI15GJPPJ3Po0-8">
          <mxGeometry relative="1" as="geometry">
            <Array as="points">
              <mxPoint x="717" y="300" />
              <mxPoint x="717" y="300" />
            </Array>
          </mxGeometry>
        </mxCell>
        <mxCell id="M-JQSVvkI15GJPPJ3Po0-37" value="auth/register" style="edgeLabel;html=1;align=center;verticalAlign=middle;resizable=0;points=[];" vertex="1" connectable="0" parent="M-JQSVvkI15GJPPJ3Po0-36">
          <mxGeometry x="-0.2526" y="-1" relative="1" as="geometry">
            <mxPoint x="44" y="-4" as="offset" />
          </mxGeometry>
        </mxCell>
        <mxCell id="M-JQSVvkI15GJPPJ3Po0-40" value="account/password" style="text;html=1;align=center;verticalAlign=middle;whiteSpace=wrap;rounded=0;" vertex="1" parent="1">
          <mxGeometry x="515" y="226" width="60" height="30" as="geometry" />
        </mxCell>
        <mxCell id="M-JQSVvkI15GJPPJ3Po0-41" style="edgeStyle=orthogonalEdgeStyle;rounded=0;orthogonalLoop=1;jettySize=auto;html=1;exitX=0.5;exitY=1;exitDx=0;exitDy=0;" edge="1" parent="1" source="M-JQSVvkI15GJPPJ3Po0-40" target="M-JQSVvkI15GJPPJ3Po0-40">
          <mxGeometry relative="1" as="geometry" />
        </mxCell>
        <mxCell id="M-JQSVvkI15GJPPJ3Po0-45" value="Accomondation" style="swimlane;fontStyle=1;align=center;verticalAlign=middle;childLayout=stackLayout;horizontal=1;startSize=29;horizontalStack=0;resizeParent=1;resizeParentMax=0;resizeLast=0;collapsible=0;marginBottom=0;html=1;whiteSpace=wrap;" vertex="1" parent="1">
          <mxGeometry x="412" y="680" width="140" height="220" as="geometry" />
        </mxCell>
        <mxCell id="M-JQSVvkI15GJPPJ3Po0-46" value="owner id: string&lt;div&gt;name: string&lt;/div&gt;&lt;div&gt;location: string,&lt;/div&gt;&lt;div&gt;benefits: string[]&lt;/div&gt;&lt;div&gt;photos: string[]&lt;/div&gt;&lt;div&gt;numberOfGuests: number&lt;/div&gt;&lt;div&gt;nativePrice: number&lt;/div&gt;&lt;div&gt;changedPrice: Price[]&lt;/div&gt;&lt;div&gt;&lt;br&gt;&lt;/div&gt;&lt;div&gt;notAvailableDates: NotAvailable[]&lt;/div&gt;" style="text;html=1;strokeColor=none;fillColor=none;align=center;verticalAlign=middle;spacingLeft=4;spacingRight=4;overflow=hidden;rotatable=0;points=[[0,0.5],[1,0.5]];portConstraint=eastwest;whiteSpace=wrap;" vertex="1" parent="M-JQSVvkI15GJPPJ3Po0-45">
          <mxGeometry y="29" width="140" height="191" as="geometry" />
        </mxCell>
        <mxCell id="M-JQSVvkI15GJPPJ3Po0-49" value="Reservation" style="swimlane;fontStyle=1;align=center;verticalAlign=middle;childLayout=stackLayout;horizontal=1;startSize=29;horizontalStack=0;resizeParent=1;resizeParentMax=0;resizeLast=0;collapsible=0;marginBottom=0;html=1;whiteSpace=wrap;" vertex="1" parent="1">
          <mxGeometry x="219" y="680" width="170" height="130" as="geometry" />
        </mxCell>
        <mxCell id="M-JQSVvkI15GJPPJ3Po0-50" value="accomondation id: string&lt;div&gt;accomo&lt;span style=&quot;background-color: initial;&quot;&gt;ndation name: string&lt;/span&gt;&lt;/div&gt;&lt;div&gt;&lt;div&gt;user id: string&lt;/div&gt;&lt;div&gt;from: Date[]&lt;/div&gt;&lt;div&gt;to: Date []&lt;/div&gt;&lt;div&gt;price: number&lt;/div&gt;&lt;/div&gt;" style="text;html=1;strokeColor=none;fillColor=none;align=center;verticalAlign=middle;spacingLeft=4;spacingRight=4;overflow=hidden;rotatable=0;points=[[0,0.5],[1,0.5]];portConstraint=eastwest;whiteSpace=wrap;" vertex="1" parent="M-JQSVvkI15GJPPJ3Po0-49">
          <mxGeometry y="29" width="170" height="101" as="geometry" />
        </mxCell>
        <mxCell id="M-JQSVvkI15GJPPJ3Po0-52" value="reason je Booked ili Unavailable" style="ellipse;shape=cloud;whiteSpace=wrap;html=1;" vertex="1" parent="1">
          <mxGeometry x="560" y="912" width="170" height="70" as="geometry" />
        </mxCell>
        <mxCell id="M-JQSVvkI15GJPPJ3Po0-53" value="NotAvailable" style="swimlane;fontStyle=1;align=center;verticalAlign=middle;childLayout=stackLayout;horizontal=1;startSize=29;horizontalStack=0;resizeParent=1;resizeParentMax=0;resizeLast=0;collapsible=0;marginBottom=0;html=1;whiteSpace=wrap;" vertex="1" parent="1">
          <mxGeometry x="413" y="944" width="140" height="80" as="geometry" />
        </mxCell>
        <mxCell id="M-JQSVvkI15GJPPJ3Po0-54" value="reason: string&lt;div&gt;date: Date&lt;/div&gt;" style="text;html=1;strokeColor=none;fillColor=none;align=center;verticalAlign=middle;spacingLeft=4;spacingRight=4;overflow=hidden;rotatable=0;points=[[0,0.5],[1,0.5]];portConstraint=eastwest;whiteSpace=wrap;" vertex="1" parent="M-JQSVvkI15GJPPJ3Po0-53">
          <mxGeometry y="29" width="140" height="51" as="geometry" />
        </mxCell>
        <mxCell id="M-JQSVvkI15GJPPJ3Po0-56" value="User se brise samo ako u njegovim accomondations-ima nema nijednog zauzetog dana koji je tipa Booked i date je u buducnosti" style="ellipse;shape=cloud;whiteSpace=wrap;html=1;" vertex="1" parent="1">
          <mxGeometry x="760" y="730" width="190" height="130" as="geometry" />
        </mxCell>
        <mxCell id="M-JQSVvkI15GJPPJ3Po0-59" style="edgeStyle=orthogonalEdgeStyle;rounded=0;orthogonalLoop=1;jettySize=auto;html=1;entryX=0.5;entryY=0;entryDx=0;entryDy=0;entryPerimeter=0;" edge="1" parent="1" source="M-JQSVvkI15GJPPJ3Po0-10" target="M-JQSVvkI15GJPPJ3Po0-20">
          <mxGeometry relative="1" as="geometry" />
        </mxCell>
        <mxCell id="M-JQSVvkI15GJPPJ3Po0-61" value="Notification" style="swimlane;fontStyle=1;align=center;verticalAlign=middle;childLayout=stackLayout;horizontal=1;startSize=29;horizontalStack=0;resizeParent=1;resizeParentMax=0;resizeLast=0;collapsible=0;marginBottom=0;html=1;whiteSpace=wrap;" vertex="1" parent="1">
          <mxGeometry x="54" y="681" width="140" height="100" as="geometry" />
        </mxCell>
        <mxCell id="M-JQSVvkI15GJPPJ3Po0-62" value="user id: string&lt;div&gt;time: Date&lt;/div&gt;&lt;div&gt;text: string&lt;/div&gt;&lt;div&gt;read: boolean&lt;/div&gt;" style="text;html=1;strokeColor=none;fillColor=none;align=center;verticalAlign=middle;spacingLeft=4;spacingRight=4;overflow=hidden;rotatable=0;points=[[0,0.5],[1,0.5]];portConstraint=eastwest;whiteSpace=wrap;" vertex="1" parent="M-JQSVvkI15GJPPJ3Po0-61">
          <mxGeometry y="29" width="140" height="71" as="geometry" />
        </mxCell>
        <mxCell id="M-JQSVvkI15GJPPJ3Po0-64" value="Tekst moze da bude i u vidu html stringa pa da se renderuje na odredjeni nacin na frontu" style="ellipse;shape=cloud;whiteSpace=wrap;html=1;" vertex="1" parent="1">
          <mxGeometry x="44" y="780" width="150" height="100" as="geometry" />
        </mxCell>
        <mxCell id="M-JQSVvkI15GJPPJ3Po0-68" style="edgeStyle=orthogonalEdgeStyle;rounded=0;orthogonalLoop=1;jettySize=auto;html=1;" edge="1" parent="1" source="M-JQSVvkI15GJPPJ3Po0-65" target="M-JQSVvkI15GJPPJ3Po0-67">
          <mxGeometry relative="1" as="geometry" />
        </mxCell>
        <mxCell id="M-JQSVvkI15GJPPJ3Po0-65" value="Review Service" style="rounded=0;whiteSpace=wrap;html=1;" vertex="1" parent="1">
          <mxGeometry x="-100" y="450" width="120" height="60" as="geometry" />
        </mxCell>
        <mxCell id="M-JQSVvkI15GJPPJ3Po0-67" value="SQL database" style="shape=cylinder3;whiteSpace=wrap;html=1;boundedLbl=1;backgroundOutline=1;size=15;" vertex="1" parent="1">
          <mxGeometry x="-70" y="580" width="60" height="80" as="geometry" />
        </mxCell>
        <mxCell id="M-JQSVvkI15GJPPJ3Po0-69" value="Review" style="swimlane;fontStyle=1;align=center;verticalAlign=middle;childLayout=stackLayout;horizontal=1;startSize=29;horizontalStack=0;resizeParent=1;resizeParentMax=0;resizeLast=0;collapsible=0;marginBottom=0;html=1;whiteSpace=wrap;" vertex="1" parent="1">
          <mxGeometry x="-130" y="681" width="150" height="100" as="geometry" />
        </mxCell>
        <mxCell id="M-JQSVvkI15GJPPJ3Po0-70" value="user id?: string&lt;div&gt;accomondation id?: string&lt;/div&gt;&lt;div&gt;review: number&lt;/div&gt;&lt;div&gt;comment: string&lt;/div&gt;" style="text;html=1;strokeColor=none;fillColor=none;align=center;verticalAlign=middle;spacingLeft=4;spacingRight=4;overflow=hidden;rotatable=0;points=[[0,0.5],[1,0.5]];portConstraint=eastwest;whiteSpace=wrap;" vertex="1" parent="M-JQSVvkI15GJPPJ3Po0-69">
          <mxGeometry y="29" width="150" height="71" as="geometry" />
        </mxCell>
        <mxCell id="M-JQSVvkI15GJPPJ3Po0-73" value="Price" style="swimlane;fontStyle=1;align=center;verticalAlign=middle;childLayout=stackLayout;horizontal=1;startSize=29;horizontalStack=0;resizeParent=1;resizeParentMax=0;resizeLast=0;collapsible=0;marginBottom=0;html=1;whiteSpace=wrap;" vertex="1" parent="1">
          <mxGeometry x="413" y="1040" width="140" height="80" as="geometry" />
        </mxCell>
        <mxCell id="M-JQSVvkI15GJPPJ3Po0-74" value="from: Date&lt;div&gt;to: Date&lt;/div&gt;&lt;div&gt;price: number&lt;/div&gt;" style="text;html=1;strokeColor=none;fillColor=none;align=center;verticalAlign=middle;spacingLeft=4;spacingRight=4;overflow=hidden;rotatable=0;points=[[0,0.5],[1,0.5]];portConstraint=eastwest;whiteSpace=wrap;" vertex="1" parent="M-JQSVvkI15GJPPJ3Po0-73">
          <mxGeometry y="29" width="140" height="51" as="geometry" />
        </mxCell>
      </root>
    </mxGraphModel>
  </diagram>
</mxfile>
